<svg width="70" height="70" viewBox="0 0 70 70" fill="none" xmlns="http://www.w3.org/2000/svg">
<path d="M62.4167 46.4333L63.4375 43.3417L61.5417 39.7688L59.9083 39.375L56.0875 34.0813C56.0875 30.1 53.7542 29.1813 50.7354 29.2688V36.4583L56.4521 40.9354L55.3 42.2333L55.6792 46.5063L58.4938 47.6875M56.6125 40.9063L60.0687 39.3167M39.7542 54.8333C39.9583 56.9917 40.3667 59.2083 40.8188 59.2083H50.7792C54.0313 59.2083 54.075 46.2583 51.0125 46.2583H49.3063M7.58333 46.4333L6.5625 43.3417L8.45833 39.7688L10.0917 39.375L13.9125 34.0813C13.9125 30.1 16.2458 29.1813 19.2646 29.2688V36.4583L13.5479 40.9063M13.5479 40.9063L14.7 42.2042L14.3208 46.4771L11.5062 47.6583M13.5479 40.9063L10.0917 39.3167M30.4208 54.8333C30.2167 56.9917 29.8083 59.2083 29.3417 59.2083H19.3813C16.1438 59.2083 16.0854 46.2583 19.1479 46.2583H20.8688M35 33.3958C35.8354 33.3967 36.6434 33.6939 37.2803 34.2345C37.9172 34.7752 38.3416 35.5242 38.4781 36.3484C38.6146 37.1726 38.4543 38.0185 38.0257 38.7356C37.5971 39.4527 36.928 39.9945 36.1375 40.2646L37.6833 47.7313L35 48.475L32.2875 47.7313L33.8333 40.2646C33.0404 39.9937 32.3696 39.4495 31.9412 38.7293C31.5128 38.0092 31.3545 37.1601 31.4949 36.3339C31.6352 35.5078 32.0649 34.7586 32.7071 34.2203C33.3493 33.6819 34.1621 33.3897 35 33.3958ZM43.6479 23.1146H39.2729V22.0063C39.3579 21.4874 39.6246 21.0157 40.0253 20.6753C40.426 20.3349 40.9347 20.148 41.4604 20.148C41.9862 20.148 42.4948 20.3349 42.8955 20.6753C43.2962 21.0157 43.5629 21.4874 43.6479 22.0063V23.1146ZM30.8 23.1146H26.425V22.0063C26.51 21.4874 26.7767 21.0157 27.1774 20.6753C27.5781 20.3349 28.0867 20.148 28.6125 20.148C29.1383 20.148 29.6469 20.3349 30.0476 20.6753C30.4483 21.0157 30.715 21.4874 30.8 22.0063V23.1146Z" stroke="white" stroke-width="2" stroke-linecap="round" stroke-linejoin="round"/>
<path d="M21.4229 28.5688H48.5771C49.1495 28.5688 49.6985 28.7962 50.1033 29.2009C50.508 29.6057 50.7354 30.1547 50.7354 30.7271V39.8271C50.7354 44.0004 49.0776 48.0027 46.1266 50.9537C43.1757 53.9047 39.1733 55.5625 35 55.5625C30.8267 55.5625 26.8243 53.9047 23.8734 50.9537C20.9224 48.0027 19.2646 44.0004 19.2646 39.8271V30.7271C19.2646 30.1547 19.492 29.6057 19.8967 29.2009C20.3015 28.7962 20.8505 28.5688 21.4229 28.5688ZM21.4229 28.5688H48.5625C48.8479 28.5688 49.1304 28.5126 49.394 28.4034C49.6577 28.2942 49.8972 28.1341 50.099 27.9323C50.3008 27.7305 50.4608 27.491 50.57 27.2274C50.6792 26.9637 50.7354 26.6812 50.7354 26.3958C50.7354 22.2225 49.0776 18.2202 46.1266 15.2692C43.1757 12.3183 39.1733 10.6604 35 10.6604C32.9324 10.6585 30.8846 11.0641 28.9738 11.854C27.063 12.6439 25.3267 13.8027 23.864 15.2641C22.4012 16.7254 21.2409 18.4607 20.4492 20.3708C19.6575 22.2808 19.25 24.3282 19.25 26.3958C19.25 26.9721 19.4789 27.5248 19.8864 27.9323C20.2939 28.3398 20.8466 28.5688 21.4229 28.5688Z" stroke="white" stroke-width="2" stroke-linecap="round" stroke-linejoin="round"/>
</svg>
